{"asset":{"version":"2.0","generator":"babylon.js glTF exporter for 3dsmax 2021 v20210811.2"},"scene":0,"scenes":[{"nodes":[0,1,2,3,4,7,8,9,10,11,12]}],"nodes":[{"mesh":0,"translation":[-0.046268113,0.0,0.017061241],"name":"teapot001"},{"mesh":1,"translation":[0.0541756526,0.0,-0.00437616138],"name":"ball001"},{"mesh":2,"translation":[0.0577766672,0.0,0.05541577],"name":"地理球体"},{"mesh":3,"translation":[0.025085127,0.0,-0.0245151483],"name":"guanzi"},{"children":[5,6],"translation":[0.000144399644,0.006646961,0.047326874],"name":"mm"},{"mesh":4,"translation":[0.0185599234,-0.006646961,0.0],"name":"titai001"},{"mesh":5,"translation":[-0.0202759523,-0.006646961,0.000884185836],"name":"Sphere002"},{"translation":[-0.0150604807,0.0,-0.03613648],"name":"Blizzard001"},{"translation":[0.0647104457,0.0,0.08396235],"name":"Spray001"},{"mesh":6,"translation":[0.1129041,-2.90513252E-10,0.0251877047],"rotation":[0.41642338,-0.5714819,0.571481943,0.416423351],"name":"CasementWindow001"},{"mesh":7,"translation":[-0.05872395,-5.904466E-10,-0.136100352],"rotation":[0.5335531,-0.464027077,0.4640271,0.533553],"scale":[0.99999994,0.99999994,1.0],"name":"PivotedWindow001"},{"mesh":8,"translation":[-0.13975817,-9.075017E-10,-0.0428992771],"rotation":[0.516690433,-0.482732832,0.4827329,0.5166904],"name":"PivotedWindow002"},{"mesh":9,"translation":[-0.08683808,0.0,-0.0256850664],"rotation":[0.4793685,-0.5198133,0.519813359,0.479368418],"name":"Pivot001"}],"meshes":[{"primitives":[{"attributes":{"POSITION":1,"NORMAL":2,"TEXCOORD_0":3},"indices":0,"material":0}],"name":"teapot001"},{"primitives":[{"attributes":{"POSITION":5,"NORMAL":6,"TEXCOORD_0":7},"indices":4,"material":0}],"name":"ball001"},{"primitives":[{"attributes":{"POSITION":9,"NORMAL":10,"TEXCOORD_0":11},"indices":8,"material":0}],"name":"地理球体"},{"primitives":[{"attributes":{"POSITION":13,"NORMAL":14,"TEXCOORD_0":15},"indices":12,"material":1}],"name":"guanzi"},{"primitives":[{"attributes":{"POSITION":17,"NORMAL":18,"TEXCOORD_0":19},"indices":16,"material":0}],"name":"titai001"},{"primitives":[{"attributes":{"POSITION":21,"NORMAL":22,"TEXCOORD_0":23},"indices":20,"material":0}],"name":"Sphere002"},{"primitives":[{"attributes":{"POSITION":25,"NORMAL":26},"indices":24}],"name":"CasementWindow001"},{"primitives":[{"attributes":{"POSITION":28,"NORMAL":29},"indices":27}],"name":"PivotedWindow001"},{"primitives":[{"attributes":{"POSITION":31,"NORMAL":32},"indices":30}],"name":"PivotedWindow002"},{"primitives":[{"attributes":{"POSITION":34,"NORMAL":35},"indices":33}],"name":"Pivot001"}],"accessors":[{"bufferView":0,"componentType":5123,"count":9216,"type":"SCALAR","name":"accessorIndices"},{"bufferView":1,"componentType":5126,"count":1683,"max":[0.04377393,0.0318559632,0.0255007073],"min":[-0.03825106,0.0,-0.0255007073],"type":"VEC3","name":"accessorPositions"},{"bufferView":1,"byteOffset":20196,"componentType":5126,"count":1683,"type":"VEC3","name":"accessorNormals"},{"bufferView":2,"componentType":5126,"count":1683,"type":"VEC2","name":"accessorUVs"},{"bufferView":0,"byteOffset":18432,"componentType":5123,"count":2880,"type":"SCALAR","name":"accessorIndices"},{"bufferView":1,"byteOffset":40392,"componentType":5126,"count":559,"max":[0.0133224959,0.0133224959,0.0133224959],"min":[-0.0133224959,-0.0133224959,-0.0133224959],"type":"VEC3","name":"accessorPositions"},{"bufferView":1,"byteOffset":47100,"componentType":5126,"count":559,"type":"VEC3","name":"accessorNormals"},{"bufferView":2,"byteOffset":13464,"componentType":5126,"count":559,"type":"VEC2","name":"accessorUVs"},{"bufferView":0,"byteOffset":24192,"componentType":5123,"count":3840,"type":"SCALAR","name":"accessorIndices"},{"bufferView":1,"byteOffset":53808,"componentType":5126,"count":673,"max":[0.0105215367,0.0105215376,0.0105215367],"min":[-0.0105215358,-0.0105215376,-0.0105215376],"type":"VEC3","name":"accessorPositions"},{"bufferView":1,"byteOffset":61884,"componentType":5126,"count":673,"type":"VEC3","name":"accessorNormals"},{"bufferView":2,"byteOffset":17936,"componentType":5126,"count":673,"type":"VEC2","name":"accessorUVs"},{"bufferView":0,"byteOffset":31872,"componentType":5123,"count":1296,"type":"SCALAR","name":"accessorIndices"},{"bufferView":1,"byteOffset":69960,"componentType":5126,"count":304,"max":[0.01261763,0.01920819,0.0128122764],"min":[-0.01261763,0.0,-0.0128122764],"type":"VEC3","name":"accessorPositions"},{"bufferView":1,"byteOffset":73608,"componentType":5126,"count":304,"type":"VEC3","name":"accessorNormals"},{"bufferView":2,"byteOffset":23320,"componentType":5126,"count":304,"type":"VEC2","name":"accessorUVs"},{"bufferView":0,"byteOffset":34464,"componentType":5123,"count":864,"type":"SCALAR","name":"accessorIndices"},{"bufferView":1,"byteOffset":77256,"componentType":5126,"count":202,"max":[0.0116113862,0.0231892783,0.0116113862],"min":[-0.0116113862,0.0,-0.0116113862],"type":"VEC3","name":"accessorPositions"},{"bufferView":1,"byteOffset":79680,"componentType":5126,"count":202,"type":"VEC3","name":"accessorNormals"},{"bufferView":2,"byteOffset":25752,"componentType":5126,"count":202,"type":"VEC2","name":"accessorUVs"},{"bufferView":0,"byteOffset":36192,"componentType":5123,"count":2880,"type":"SCALAR","name":"accessorIndices"},{"bufferView":1,"byteOffset":82104,"componentType":5126,"count":559,"max":[0.009895356,0.009895356,0.009895356],"min":[-0.009895356,-0.009895356,-0.009895356],"type":"VEC3","name":"accessorPositions"},{"bufferView":1,"byteOffset":88812,"componentType":5126,"count":559,"type":"VEC3","name":"accessorNormals"},{"bufferView":2,"byteOffset":27368,"componentType":5126,"count":559,"type":"VEC2","name":"accessorUVs"},{"bufferView":0,"byteOffset":41952,"componentType":5123,"count":564,"type":"SCALAR","name":"accessorIndices"},{"bufferView":1,"byteOffset":95520,"componentType":5126,"count":304,"max":[0.0389745273,0.03359352,0.0],"min":[-0.0389745273,-0.03359352,-0.0642673448],"type":"VEC3","name":"accessorPositions"},{"bufferView":1,"byteOffset":99168,"componentType":5126,"count":304,"type":"VEC3","name":"accessorNormals"},{"bufferView":0,"byteOffset":43080,"componentType":5123,"count":564,"type":"SCALAR","name":"accessorIndices"},{"bufferView":1,"byteOffset":102816,"componentType":5126,"count":304,"max":[0.0534113161,0.0578871928,0.0],"min":[-0.0534113161,-0.0578871928,-0.060262505],"type":"VEC3","name":"accessorPositions"},{"bufferView":1,"byteOffset":106464,"componentType":5126,"count":304,"type":"VEC3","name":"accessorNormals"},{"bufferView":0,"byteOffset":44208,"componentType":5123,"count":564,"type":"SCALAR","name":"accessorIndices"},{"bufferView":1,"byteOffset":110112,"componentType":5126,"count":304,"max":[0.030617265,0.0013132859,0.0],"min":[-0.030617265,-0.0013132859,-0.08973096],"type":"VEC3","name":"accessorPositions"},{"bufferView":1,"byteOffset":113760,"componentType":5126,"count":304,"type":"VEC3","name":"accessorNormals"},{"bufferView":0,"byteOffset":45336,"componentType":5123,"count":228,"type":"SCALAR","name":"accessorIndices"},{"bufferView":1,"byteOffset":117408,"componentType":5126,"count":136,"max":[0.0562153161,0.00918837,0.0],"min":[-0.002,-0.001,-0.09015694],"type":"VEC3","name":"accessorPositions"},{"bufferView":1,"byteOffset":119040,"componentType":5126,"count":136,"type":"VEC3","name":"accessorNormals"}],"bufferViews":[{"buffer":0,"byteLength":45792,"name":"bufferViewScalar"},{"buffer":0,"byteOffset":45792,"byteLength":120672,"byteStride":12,"name":"bufferViewFloatVec3"},{"buffer":0,"byteOffset":166464,"byteLength":31840,"byteStride":8,"name":"bufferViewFloatVec2"}],"buffers":[{"uri":"cat.bin","byteLength":198304}],"materials":[{"pbrMetallicRoughness":{"baseColorTexture":{"index":0},"metallicFactor":0.0,"roughnessFactor":0.31},"doubleSided":true,"name":"02 - Default","extras":{"babylonSeparateCullingPass":false}},{"pbrMetallicRoughness":{"baseColorTexture":{"index":1},"metallicFactor":0.0,"roughnessFactor":0.459999979},"doubleSided":true,"name":"03 - Default","extras":{"babylonSeparateCullingPass":false}}],"textures":[{"sampler":0,"source":0,"name":"hj8.top(5).jpg"},{"sampler":0,"source":1,"name":"hj8.top(45).jpg"}],"images":[{"uri":"hj8.top(5).jpg"},{"uri":"hj8.top(45).jpg"}],"samplers":[{"magFilter":9729,"minFilter":9987}]}